<svg width="44" height="49" viewBox="0 0 44 49" fill="none" xmlns="http://www.w3.org/2000/svg">
<g filter="url(#filter0_d)">
<path fill-rule="evenodd" clip-rule="evenodd" d="M22.6568 31.0546C28.1502 31.0546 32.6205 26.5812 32.6205 21.0419C32.6205 15.5027 28.1502 11.0292 22.6568 11.0292C17.1634 11.0292 12.693 15.5027 12.693 21.0419C12.693 26.5812 17.1634 31.0546 22.6568 31.0546ZM22.6568 33.4943C29.5072 33.4943 35.0606 27.9192 35.0606 21.0419C35.0606 14.1647 29.5072 8.5896 22.6568 8.5896C15.8063 8.5896 10.2529 14.1647 10.2529 21.0419C10.2529 27.9192 15.8063 33.4943 22.6568 33.4943Z" fill="white"/>
<path fill-rule="evenodd" clip-rule="evenodd" d="M39.9999 0.215311C40.0004 0.215352 40.0008 0.215383 39.8998 1.3545C39.7988 2.49362 39.799 2.49363 39.799 2.49363L39.7956 2.49334L39.7821 2.49217C39.7697 2.49112 39.7505 2.48951 39.7248 2.48742C39.6734 2.48323 39.5959 2.47711 39.4938 2.46957C39.2897 2.4545 38.9877 2.43381 38.6011 2.41176C37.8278 2.36765 36.7171 2.31817 35.3755 2.2973C32.688 2.25551 29.0935 2.32893 25.4354 2.78443C21.7623 3.2418 18.1046 4.07525 15.2457 5.51029C12.3949 6.94127 10.4841 8.88887 9.96149 11.5377C9.682 12.9543 9.90004 13.9817 10.3917 14.7847C10.9018 15.6176 11.7836 16.3349 13.0492 16.9602C15.6204 18.2305 19.3229 18.9154 23.2805 19.6369L23.3987 19.6584C27.211 20.3533 31.252 21.0898 34.2033 22.527C35.7132 23.2623 37.0402 24.2266 37.9053 25.556C38.7894 26.9145 39.12 28.5452 38.8182 30.4531C38.2067 34.3183 35.4667 36.7957 32.0261 38.3407C28.6017 39.8784 24.3193 40.5786 20.208 40.8518C16.0785 41.1262 12.0293 40.9751 9.02078 40.7573C7.51426 40.6482 6.2635 40.522 5.38756 40.4229C4.94949 40.3733 4.60489 40.3304 4.3686 40.2998C4.25045 40.2844 4.15936 40.2722 4.09718 40.2637C4.06609 40.2594 4.04223 40.2561 4.02583 40.2537C4.01762 40.2526 4.01129 40.2517 4.00684 40.2511L4.0016 40.2503L4.00005 40.2501C3.99957 40.25 3.99922 40.25 4.16246 39.1181C4.32569 37.9862 4.32558 37.9862 4.32558 37.9862L4.32618 37.9863L4.32951 37.9868C4.33268 37.9872 4.33773 37.9879 4.34463 37.9889C4.35844 37.9908 4.37966 37.9938 4.40807 37.9977C4.46488 38.0055 4.55043 38.017 4.66285 38.0316C4.88771 38.0608 5.22 38.1021 5.64495 38.1502C6.49503 38.2465 7.71474 38.3696 9.186 38.4761C12.133 38.6895 16.0687 38.8347 20.0563 38.5697C24.062 38.3034 28.0289 37.6284 31.0889 36.2543C34.1327 34.8875 36.1124 32.9165 36.5587 30.0957C36.7835 28.6751 36.526 27.6303 35.9878 26.8033C35.4308 25.9473 34.5015 25.2162 33.2016 24.5832C30.5641 23.2988 26.8251 22.6079 22.8702 21.8869L22.748 21.8647C18.9402 21.1706 14.9274 20.4392 12.0358 19.0107C10.5545 18.2788 9.25865 17.3147 8.44073 15.9789C7.60449 14.6132 7.34437 12.9845 7.71714 11.0951C8.42718 7.4961 11.0152 5.07459 14.2193 3.46627C17.4154 1.86201 21.3688 0.98596 25.1527 0.514801C28.9515 0.041773 32.6599 -0.0323657 35.411 0.0104171C36.7887 0.0318412 37.9313 0.0826766 38.7314 0.128313C39.1316 0.151137 39.4463 0.172677 39.6623 0.18862C39.7703 0.196593 39.8536 0.203168 39.9105 0.207807C39.939 0.210127 39.9609 0.211963 39.976 0.213248C39.9836 0.213891 39.9894 0.214395 39.9936 0.214754L39.9999 0.215311Z" fill="white"/>
</g>
<defs>
<filter id="filter0_d" x="0" y="0" width="44" height="49" filterUnits="userSpaceOnUse" color-interpolation-filters="sRGB">
<feFlood flood-opacity="0" result="BackgroundImageFix"/>
<feColorMatrix in="SourceAlpha" type="matrix" values="0 0 0 0 0 0 0 0 0 0 0 0 0 0 0 0 0 0 127 0"/>
<feOffset dy="4"/>
<feGaussianBlur stdDeviation="2"/>
<feColorMatrix type="matrix" values="0 0 0 0 0 0 0 0 0 0 0 0 0 0 0 0 0 0 0.25 0"/>
<feBlend mode="normal" in2="BackgroundImageFix" result="effect1_dropShadow"/>
<feBlend mode="normal" in="SourceGraphic" in2="effect1_dropShadow" result="shape"/>
</filter>
</defs>
</svg>
