<svg width="19" height="22" viewBox="0 0 19 22" fill="none" xmlns="http://www.w3.org/2000/svg">
<path fill-rule="evenodd" clip-rule="evenodd" d="M9.84677 16.6634C12.7461 16.6634 15.1054 14.263 15.1054 11.2907C15.1054 8.31845 12.7461 5.91808 9.84677 5.91808C6.94746 5.91808 4.58812 8.31845 4.58812 11.2907C4.58812 14.263 6.94746 16.6634 9.84677 16.6634ZM9.84677 17.9725C13.4623 17.9725 16.3933 14.981 16.3933 11.2907C16.3933 7.60052 13.4623 4.60901 9.84677 4.60901C6.23125 4.60901 3.30029 7.60052 3.30029 11.2907C3.30029 14.981 6.23125 17.9725 9.84677 17.9725Z" fill="#888888"/>
<path fill-rule="evenodd" clip-rule="evenodd" d="M19 0.115533C19.0002 0.115555 19.0004 0.115571 18.9471 0.726805C18.8938 1.33804 18.8939 1.33805 18.8939 1.33805L18.8921 1.33789L18.885 1.33726C18.8784 1.3367 18.8683 1.33584 18.8548 1.33471C18.8276 1.33247 18.7867 1.32918 18.7328 1.32514C18.6251 1.31705 18.4657 1.30595 18.2617 1.29412C17.8535 1.27045 17.2674 1.24389 16.5593 1.2327C15.1409 1.21027 13.2438 1.24967 11.3131 1.49408C9.37453 1.7395 7.44412 2.18672 5.93525 2.95674C4.43065 3.72458 3.42215 4.76964 3.14634 6.19095C2.99883 6.95111 3.11391 7.50236 3.37342 7.93325C3.6426 8.3802 4.10803 8.76508 4.77597 9.10058C6.13301 9.7822 8.08707 10.1497 10.1758 10.5369L10.2382 10.5484C12.2502 10.9213 14.383 11.3165 15.9407 12.0877C16.7375 12.4822 17.4379 12.9996 17.8945 13.713C18.3611 14.442 18.5356 15.317 18.3763 16.3407C18.0535 18.4147 16.6074 19.744 14.7916 20.5731C12.9842 21.3982 10.7241 21.7739 8.55421 21.9205C6.37476 22.0677 4.2377 21.9866 2.64986 21.8698C1.85475 21.8112 1.19462 21.7435 0.732325 21.6903C0.501121 21.6637 0.319245 21.6407 0.194539 21.6243C0.132182 21.616 0.0841057 21.6095 0.0512905 21.6049C0.0348824 21.6026 0.0222884 21.6008 0.0136308 21.5996C0.00930195 21.599 0.00595709 21.5985 0.0036115 21.5981L0.000844426 21.5977L2.6527e-05 21.5976C-0.000224429 21.5976 -0.000412384 21.5975 0.0857402 20.9902C0.171893 20.3829 0.171831 20.3828 0.171833 20.3828L0.17215 20.3829L0.173909 20.3831C0.17558 20.3834 0.178245 20.3838 0.181889 20.3843C0.189176 20.3853 0.200377 20.3869 0.21537 20.389C0.245356 20.3932 0.290503 20.3994 0.349838 20.4072C0.468515 20.4228 0.643891 20.445 0.868166 20.4709C1.31682 20.5225 1.96055 20.5886 2.73705 20.6457C4.29242 20.7602 6.36958 20.8381 8.47413 20.6959C10.5883 20.5531 12.6819 20.1909 14.2969 19.4535C15.9034 18.7201 16.9482 17.6625 17.1838 16.1489C17.3024 15.3866 17.1665 14.826 16.8825 14.3823C16.5885 13.9229 16.098 13.5307 15.412 13.191C14.0199 12.5018 12.0466 12.1311 9.95928 11.7442L9.89479 11.7323C7.88508 11.3598 5.76722 10.9674 4.24112 10.2008C3.45932 9.80815 2.7754 9.2908 2.34372 8.57404C1.90237 7.84122 1.76508 6.96731 1.96183 5.95344C2.33656 4.0223 3.70247 2.72295 5.39354 1.85995C7.08033 0.999126 9.16686 0.529052 11.1639 0.276235C13.1689 0.0224148 15.126 -0.0173669 16.5781 0.00558969C17.3052 0.0170855 17.9082 0.0443631 18.3305 0.0688509C18.5417 0.0810978 18.7078 0.0926557 18.8218 0.101211C18.8788 0.105489 18.9227 0.109017 18.9528 0.111506C18.9678 0.112751 18.9794 0.113736 18.9873 0.114426C18.9913 0.114771 18.9944 0.115041 18.9966 0.115234L19 0.115533Z" fill="#888888"/>
</svg>
