<svg width="45" height="50" viewBox="0 0 45 50" fill="none" xmlns="http://www.w3.org/2000/svg">
<g filter="url(#filter0_d)">
<path fill-rule="evenodd" clip-rule="evenodd" d="M23.1752 31.812C28.8212 31.812 33.4157 27.2295 33.4157 21.5551C33.4157 15.8807 28.8212 11.2982 23.1752 11.2982C17.5291 11.2982 12.9346 15.8807 12.9346 21.5551C12.9346 27.2295 17.5291 31.812 23.1752 31.812ZM23.1752 34.3112C30.2159 34.3112 35.9236 28.6001 35.9236 21.5551C35.9236 14.5101 30.2159 8.79907 23.1752 8.79907C16.1344 8.79907 10.4268 14.5101 10.4268 21.5551C10.4268 28.6001 16.1344 34.3112 23.1752 34.3112Z" fill="white"/>
<path fill-rule="evenodd" clip-rule="evenodd" d="M40.9999 0.220562C41.0004 0.220604 41.0008 0.220636 40.897 1.38754C40.7932 2.55444 40.7934 2.55445 40.7934 2.55445L40.7899 2.55415L40.776 2.55296C40.7633 2.55188 40.7436 2.55023 40.7172 2.54809C40.6644 2.5438 40.5846 2.53752 40.4798 2.52981C40.27 2.51437 39.9596 2.49317 39.5623 2.47059C38.7674 2.4254 37.6259 2.37471 36.247 2.35333C33.4849 2.31052 29.7905 2.38573 26.0308 2.85234C22.2557 3.32087 18.4964 4.17464 15.5581 5.64469C12.6281 7.11057 10.6642 9.10567 10.1271 11.8191C9.83983 13.2703 10.0639 14.3227 10.5693 15.1453C11.0935 15.9986 11.9999 16.7333 13.3006 17.3738C15.9432 18.6751 19.7485 19.3768 23.8161 20.1158L23.9376 20.1379C27.8557 20.8497 32.009 21.6042 35.0423 23.0765C36.5941 23.8296 37.958 24.8175 38.8471 26.1793C39.7558 27.571 40.0956 29.2415 39.7854 31.1958C39.1569 35.1553 36.3408 37.6932 32.8046 39.2758C29.2851 40.8511 24.8837 41.5683 20.6582 41.8482C16.414 42.1293 12.2524 41.9745 9.16025 41.7514C7.61188 41.6396 6.32637 41.5104 5.42611 41.4088C4.97587 41.358 4.62169 41.3141 4.37884 41.2827C4.25741 41.267 4.16378 41.2544 4.09988 41.2457C4.06793 41.2413 4.0434 41.2379 4.02654 41.2355C4.01811 41.2344 4.0116 41.2334 4.00703 41.2328L4.00164 41.232L4.00005 41.2318C3.99956 41.2317 3.9992 41.2317 4.16697 40.0722C4.33474 38.9127 4.33462 38.9127 4.33462 38.9127L4.33524 38.9128L4.33867 38.9133C4.34192 38.9137 4.34711 38.9145 4.3542 38.9155C4.3684 38.9175 4.39021 38.9205 4.4194 38.9245C4.4778 38.9325 4.56572 38.9443 4.68126 38.9592C4.91237 38.9891 5.25389 39.0314 5.69064 39.0807C6.56434 39.1793 7.81792 39.3054 9.33005 39.4145C12.3589 39.6331 16.4039 39.7818 20.5023 39.5104C24.6193 39.2377 28.6963 38.5462 31.8414 37.1386C34.9698 35.7384 37.0044 33.7193 37.4631 30.8298C37.6941 29.3745 37.4295 28.3042 36.8764 27.4571C36.3038 26.5801 35.3488 25.8313 34.0128 25.1828C31.302 23.8671 27.4592 23.1593 23.3944 22.4208L23.2688 22.3979C19.3552 21.687 15.2309 20.9377 12.259 19.4743C10.7366 18.7247 9.40472 17.737 8.56408 16.3686C7.70461 14.9696 7.43727 13.3012 7.8204 11.3657C8.55015 7.67893 11.2101 5.19836 14.5032 3.55081C17.788 1.90742 21.8513 1.01001 25.7402 0.527357C29.6446 0.0427918 33.456 -0.0331551 36.2836 0.0106712C37.6996 0.0326178 38.8739 0.0846931 39.6962 0.131443C40.1074 0.154823 40.4309 0.176888 40.6529 0.193221C40.7639 0.201388 40.8495 0.208123 40.9081 0.212876C40.9373 0.215252 40.9598 0.217133 40.9754 0.218449C40.9831 0.219107 40.9891 0.219624 40.9934 0.219992L40.9999 0.220562Z" fill="white"/>
</g>
<defs>
<filter id="filter0_d" x="0" y="0" width="45" height="50" filterUnits="userSpaceOnUse" color-interpolation-filters="sRGB">
<feFlood flood-opacity="0" result="BackgroundImageFix"/>
<feColorMatrix in="SourceAlpha" type="matrix" values="0 0 0 0 0 0 0 0 0 0 0 0 0 0 0 0 0 0 127 0"/>
<feOffset dy="4"/>
<feGaussianBlur stdDeviation="2"/>
<feColorMatrix type="matrix" values="0 0 0 0 0 0 0 0 0 0 0 0 0 0 0 0 0 0 0.25 0"/>
<feBlend mode="normal" in2="BackgroundImageFix" result="effect1_dropShadow"/>
<feBlend mode="normal" in="SourceGraphic" in2="effect1_dropShadow" result="shape"/>
</filter>
</defs>
</svg>
