<svg width="240" height="270" viewBox="0 0 240 270" fill="none" xmlns="http://www.w3.org/2000/svg">
<g filter="url(#filter0_d)">
<path fill-rule="evenodd" clip-rule="evenodd" d="M230.739 1.91672C230.741 1.91697 230.744 1.91716 230.122 8.95128C229.5 15.9854 229.501 15.9855 229.501 15.9855L229.48 15.9837L229.397 15.9765C229.321 15.97 229.203 15.9601 229.044 15.9471C228.728 15.9213 228.25 15.8835 227.622 15.8369C226.365 15.7439 224.505 15.6161 222.125 15.4799C217.362 15.2076 210.523 14.902 202.261 14.7732C185.712 14.5151 163.577 14.9685 141.05 17.7812C118.431 20.6055 95.908 25.7521 78.3028 34.6136C60.7475 43.4499 48.9807 55.4765 45.7626 71.833C44.0415 80.5811 45.3842 86.9249 48.4121 91.8836C51.5528 97.0271 56.9834 101.456 64.7767 105.317C80.6103 113.161 103.41 117.391 127.781 121.846L128.509 121.979C151.985 126.27 176.869 130.818 195.043 139.693C204.341 144.233 212.513 150.188 217.84 158.397C223.284 166.786 225.32 176.856 223.461 188.637C219.696 212.505 202.823 227.803 181.636 237.343C160.549 246.839 134.178 251.162 108.86 252.85C83.431 254.544 58.4963 253.611 39.9698 252.266C30.6926 251.593 22.9905 250.813 17.5965 250.201C14.8989 249.895 12.7768 249.63 11.3217 249.441C10.5942 249.346 10.0332 249.27 9.65035 249.218C9.45891 249.191 9.31197 249.171 9.21095 249.157C9.16044 249.15 9.12142 249.144 9.09405 249.14L9.06176 249.135L9.05222 249.134C9.04929 249.134 9.0471 249.133 10.0523 242.144C11.0575 235.155 11.0568 235.154 11.0568 235.154L11.0605 235.155L11.081 235.158C11.1005 235.161 11.1316 235.165 11.1741 235.171C11.2592 235.183 11.3899 235.201 11.5648 235.225C11.9147 235.274 12.4414 235.345 13.1337 235.435C14.5184 235.615 16.5647 235.87 19.1814 236.167C24.4163 236.762 31.9272 237.522 40.9872 238.18C59.1348 239.497 83.3705 240.394 107.926 238.757C132.593 237.113 157.021 232.945 175.865 224.46C194.609 216.02 206.799 203.849 209.547 186.43C210.932 177.658 209.346 171.206 206.032 166.1C202.602 160.813 196.879 156.299 188.875 152.39C172.633 144.459 149.609 140.192 125.254 135.74L124.502 135.603C101.053 131.317 76.3423 126.801 58.5362 117.979C49.4144 113.46 41.4345 107.506 36.3978 99.2578C31.2483 90.8245 29.6465 80.7674 31.942 69.0998C36.3143 46.8761 52.2513 31.9231 71.9823 21.9916C91.6634 12.0852 116.009 6.67552 139.309 3.76609C162.703 0.845109 185.539 0.387298 202.48 0.651485C210.964 0.783779 218 1.09769 222.927 1.3795C225.391 1.52044 227.329 1.65345 228.659 1.7519C229.324 1.80113 229.837 1.84173 230.188 1.87038C230.364 1.88471 230.498 1.89604 230.591 1.90398C230.638 1.90795 230.674 1.91106 230.699 1.91328L230.739 1.91672Z" fill="#9FE8FF"/>
</g>
<defs>
<filter id="filter0_d" x="1.05191" y="0.587158" width="237.687" height="269.178" filterUnits="userSpaceOnUse" color-interpolation-filters="sRGB">
<feFlood flood-opacity="0" result="BackgroundImageFix"/>
<feColorMatrix in="SourceAlpha" type="matrix" values="0 0 0 0 0 0 0 0 0 0 0 0 0 0 0 0 0 0 127 0"/>
<feOffset dy="4"/>
<feGaussianBlur stdDeviation="2"/>
<feColorMatrix type="matrix" values="0 0 0 0 0 0 0 0 0 0 0 0 0 0 0 0 0 0 0.25 0"/>
<feBlend mode="normal" in2="BackgroundImageFix" result="effect1_dropShadow"/>
<feBlend mode="normal" in="SourceGraphic" in2="effect1_dropShadow" result="shape"/>
</filter>
</defs>
</svg>
