<svg width="37" height="36" viewBox="0 0 37 36" fill="none" xmlns="http://www.w3.org/2000/svg">
<rect width="37" height="36" fill="#294D6F"/>
<path fill-rule="evenodd" clip-rule="evenodd" d="M17.9923 26.4803C22.1124 26.4803 25.4652 23.0979 25.4652 18.9097C25.4652 14.7215 22.1124 11.3391 17.9923 11.3391C13.8723 11.3391 10.5195 14.7215 10.5195 18.9097C10.5195 23.0979 13.8723 26.4803 17.9923 26.4803ZM17.9923 28.3249C23.1302 28.3249 27.2952 24.1095 27.2952 18.9097C27.2952 13.7098 23.1302 9.49451 17.9923 9.49451C12.8545 9.49451 8.68945 13.7098 8.68945 18.9097C8.68945 24.1095 12.8545 28.3249 17.9923 28.3249Z" fill="white"/>
<path fill-rule="evenodd" clip-rule="evenodd" d="M31 3.1628C31.0003 3.16283 31.0006 3.16285 30.9248 4.02413C30.8491 4.88542 30.8492 4.88543 30.8492 4.88543L30.8467 4.8852L30.8366 4.88433C30.8273 4.88353 30.8129 4.88231 30.7936 4.88073C30.7551 4.87757 30.6969 4.87293 30.6204 4.86724C30.4673 4.85584 30.2408 4.8402 29.9508 4.82353C29.3708 4.79017 28.5378 4.75276 27.5316 4.73699C25.516 4.70539 22.8201 4.7609 20.0765 5.1053C17.3217 5.45112 14.5785 6.08128 12.4343 7.16632C10.2962 8.24828 8.86305 9.72085 8.47112 11.7236C8.2615 12.7947 8.42503 13.5715 8.79381 14.1787C9.17633 14.8085 9.83773 15.3508 10.7869 15.8235C12.7153 16.784 15.4921 17.3019 18.4604 17.8474L18.549 17.8637C21.4082 18.3891 24.439 18.946 26.6525 20.0326C27.7849 20.5885 28.7802 21.3177 29.429 22.3228C30.092 23.35 30.34 24.583 30.1136 26.0255C29.655 28.948 27.6 30.8212 25.0196 31.9893C22.4513 33.152 19.2395 33.6813 16.156 33.8879C13.0589 34.0954 10.022 33.9812 7.76559 33.8165C6.6357 33.734 5.69762 33.6386 5.04067 33.5636C4.71212 33.5261 4.45366 33.4937 4.27645 33.4706C4.18784 33.459 4.11952 33.4497 4.07289 33.4432C4.04957 33.44 4.03167 33.4375 4.01937 33.4358C4.01322 33.4349 4.00847 33.4342 4.00513 33.4337L4.0012 33.4332L4.00004 33.433C3.99968 33.4329 3.99941 33.4329 4.12184 32.5771C4.24427 31.7213 4.24418 31.7213 4.24418 31.7213L4.24463 31.7213L4.24713 31.7217C4.24951 31.722 4.2533 31.7226 4.25847 31.7233C4.26883 31.7248 4.28475 31.727 4.30605 31.73C4.34866 31.7359 4.41282 31.7446 4.49714 31.7556C4.66578 31.7777 4.915 31.8089 5.23371 31.8453C5.87127 31.9181 6.78605 32.0111 7.8895 32.0917C10.0998 32.253 13.0515 32.3628 16.0422 32.1624C19.0465 31.9611 22.0216 31.4507 24.3167 30.4118C26.5996 29.3783 28.0843 27.8881 28.419 25.7553C28.5876 24.6812 28.3945 23.8912 27.9909 23.2659C27.5731 22.6187 26.8761 22.0659 25.9012 21.5873C23.923 20.6162 21.1189 20.0938 18.1527 19.5487L18.061 19.5318C15.2051 19.007 12.1955 18.454 10.0268 17.3739C8.91588 16.8206 7.94399 16.0916 7.33055 15.0816C6.70337 14.049 6.50828 12.8176 6.78786 11.3889C7.32038 8.66778 9.2614 6.83689 11.6645 5.62084C14.0615 4.40786 17.0266 3.74548 19.8645 3.38924C22.7136 3.03158 25.4949 2.97553 27.5583 3.00788C28.5916 3.02408 29.4485 3.06251 30.0486 3.09702C30.3487 3.11427 30.5847 3.13056 30.7467 3.14262C30.8277 3.14864 30.8902 3.15361 30.9329 3.15712C30.9543 3.15888 30.9707 3.16026 30.982 3.16124C30.9877 3.16172 30.9921 3.1621 30.9952 3.16237L31 3.1628Z" fill="white"/>
</svg>
